<svg xmlns="http://www.w3.org/2000/svg" width="800" height="520" viewBox="0 0 800 520">
  <defs>
    <linearGradient id="panel" x1="0%" y1="0%" x2="100%" y2="100%">
      <stop offset="0%" stop-color="#0f1c4d" />
      <stop offset="50%" stop-color="#162868" />
      <stop offset="100%" stop-color="#1d3bb8" />
    </linearGradient>
    <linearGradient id="grid" x1="0%" y1="0%" x2="100%" y2="0%">
      <stop offset="0%" stop-color="rgba(77,213,200,0.15)" />
      <stop offset="100%" stop-color="rgba(255,180,17,0.15)" />
    </linearGradient>
  </defs>
  <rect width="800" height="520" rx="40" fill="url(#panel)" />
  <g stroke="url(#grid)" stroke-width="1">
    <path d="M60 420c120-120 240-120 360 0s240 120 360 0" fill="none" />
    <path d="M60 360c120-100 240-100 360 0s240 100 360 0" fill="none" />
    <path d="M60 300c120-80 240-80 360 0s240 80 360 0" fill="none" />
  </g>
  <g opacity="0.85" fill="#e1e9ff">
    <rect x="120" y="140" width="120" height="160" rx="16" />
    <rect x="260" y="120" width="160" height="180" rx="20" />
    <rect x="450" y="160" width="120" height="140" rx="14" />
    <rect x="600" y="140" width="100" height="160" rx="18" />
  </g>
  <g fill="#0f1c4d" opacity="0.12">
    <rect x="160" y="190" width="40" height="70" rx="8" />
    <rect x="320" y="160" width="60" height="90" rx="10" />
    <rect x="520" y="190" width="30" height="70" rx="6" />
    <rect x="640" y="180" width="26" height="80" rx="8" />
  </g>
  <circle cx="160" cy="90" r="26" fill="rgba(77,213,200,0.6)" />
  <circle cx="660" cy="90" r="34" fill="rgba(255,180,17,0.4)" />
  <circle cx="700" cy="420" r="42" fill="rgba(255,255,255,0.16)" />
</svg>
